<svg width="20" height="20" viewBox="0 0 20 20" fill="none" xmlns="http://www.w3.org/2000/svg">
<g clip-path="url(#clip0_1_2528)">
<path d="M0 10C0 11.2232 0.220039 12.3949 0.621992 13.4782L10 14.3478L19.378 13.4782C19.78 12.3949 20 11.2232 20 10C20 8.7768 19.78 7.60508 19.378 6.52176L10 5.65219L0.621992 6.52176C0.220039 7.60508 0 8.7768 0 10H0Z" fill="#FFDA44"/>
<path d="M19.378 6.52176C17.9651 2.71379 14.2997 0 10 0C5.70035 0 2.03492 2.71379 0.621994 6.52176H19.378Z" fill="#D80027"/>
<path d="M0.621994 13.4782C2.03492 17.2862 5.70035 20 10 20C14.2997 20 17.9651 17.2862 19.378 13.4782H0.621994Z" fill="#D80027"/>
</g>
<rect x="0.5" y="0.5" width="19" height="19" rx="9.5" stroke="#34383A"/>
<defs>
<clipPath id="clip0_1_2528">
<rect width="20" height="20" rx="10" fill="white"/>
</clipPath>
</defs>
</svg>
