<svg width="33" height="32" viewBox="0 0 33 32" fill="none" xmlns="http://www.w3.org/2000/svg">
<g clip-path="url(#clip0_50_129)">
<path d="M16.4803 2.04769V3.94146C16.4544 3.94097 16.428 3.94097 16.4016 3.94097L16.3664 4.04234L16.3312 3.94097C10.2401 3.94097 6.048 6.27009 6.78332 15.0518C6.78235 15.043 6.78088 15.0347 6.7799 15.0263C6.79016 15.138 6.80042 15.2497 6.81019 15.3613C6.79407 15.3946 5.9327 17.1782 5.72114 17.5117C5.50763 17.8481 5.26334 17.9906 4.66336 17.9191C4.06337 17.8481 2.8126 17.522 1.3786 16.686C-0.0553903 15.8501 0.270007 15.279 0.270007 15.279C0.270007 15.279 1.704 12.4862 2.70071 8.83673C3.69742 5.18731 6.04996 4.39886 6.04996 4.39886C6.04996 4.39886 7.19569 4.03205 8.4704 3.50217C9.53845 3.05799 11.4263 2.04769 11.4263 2.04769H16.4798H16.4803Z" fill="#E7012C"/>
<path d="M31.3596 16.686C29.9256 17.522 28.6748 17.8481 28.0748 17.9191C27.4748 17.9906 27.2305 17.8481 27.017 17.5117C26.8055 17.1782 25.9441 15.3946 25.928 15.3613C25.9304 15.3324 25.9333 15.3035 25.9358 15.2751C25.9324 15.2991 25.9294 15.3241 25.927 15.3496L25.9216 15.3623C26.7786 6.36363 22.6002 3.96153 16.4802 3.94146V2.04769H21.3104C21.3104 2.04769 23.1983 3.05799 24.2663 3.50217C25.541 4.03205 26.6867 4.39886 26.6867 4.39886C26.6867 4.39886 26.6877 4.39935 26.6882 4.39935C26.6882 4.39935 29.0412 5.18731 30.0375 8.83673C31.0342 12.4862 32.4682 15.279 32.4682 15.279C32.4682 15.279 32.7936 15.8501 31.3596 16.686Z" fill="#E7012C"/>
<path d="M25.9734 28.8815C25.9822 29.0617 25.9866 29.1621 25.9866 29.1621C25.9866 29.1621 25.627 30.2904 22.2303 30.2698C22.0667 30.2689 21.9084 30.2684 21.7549 30.2684C19.9433 30.2684 18.8283 30.3345 17.9499 30.3928C17.6968 30.4099 17.4642 30.4256 17.2395 30.4398H17.2351C17.1828 30.4432 17.1305 30.4461 17.0787 30.4491C17.043 30.451 17.0084 30.453 16.9732 30.455C16.9502 30.4564 16.9268 30.4574 16.9038 30.4584C16.8593 30.4608 16.8149 30.4628 16.7709 30.4648C16.7553 30.4657 16.7396 30.4662 16.724 30.4672C16.6732 30.4692 16.6219 30.4711 16.5706 30.4726C16.5608 30.4731 16.5505 30.4736 16.5408 30.4736C16.4841 30.4755 16.4274 30.477 16.3708 30.478C16.3673 30.478 16.3639 30.478 16.3605 30.478H16.359C16.3556 30.478 16.3522 30.478 16.3488 30.478C16.2921 30.477 16.2354 30.4755 16.1787 30.4736C16.169 30.4736 16.1587 30.4731 16.1489 30.4726C16.0976 30.4711 16.0463 30.4692 15.9955 30.4672C15.9799 30.4662 15.9642 30.4657 15.9486 30.4648C15.9042 30.4628 15.8602 30.4608 15.8157 30.4584C15.7928 30.4574 15.7693 30.4564 15.7463 30.455L15.6408 30.4491C15.589 30.4461 15.5367 30.4432 15.4845 30.4398H15.4801C15.2553 30.4256 15.0227 30.4099 14.7697 30.3928C13.8169 30.3296 12.5857 30.2571 10.4892 30.2698C7.09254 30.2904 6.73294 29.1621 6.73294 29.1621C6.73294 29.1621 6.73782 29.0495 6.7476 28.8497L6.73294 28.8952C6.73294 28.8952 7.18537 21.3848 7.19416 24.0876C7.19416 20.8133 7.09645 17.6379 6.81062 15.3612V15.3622C6.80281 15.2647 6.79401 15.1668 6.78473 15.0693C6.78473 15.0634 6.78375 15.0576 6.78326 15.0517C6.04794 6.26996 10.24 3.94084 16.3312 3.94084L16.3664 4.04221L16.4015 3.94084C22.564 3.94084 26.7825 6.32482 25.9216 15.3622L25.927 15.3494C25.926 15.3558 25.9255 15.3627 25.925 15.369C25.9157 15.4253 25.9055 15.4851 25.8952 15.5473C25.0333 22.8143 25.9778 28.8952 25.9778 28.8952L25.9734 28.8815Z" fill="url(#paint0_linear_50_129)"/>
<path d="M5.72114 17.5117C5.7871 17.4079 5.91609 17.163 6.06315 16.8746C1.62583 16.33 0.752728 14.256 0.752728 14.256C0.461532 14.9064 0.270007 15.2796 0.270007 15.2796C0.270007 15.2796 -0.0553903 15.8506 1.3786 16.6865C2.8126 17.5225 4.06337 17.8487 4.66336 17.9202C5.26334 17.9917 5.50763 17.8487 5.72114 17.5122V17.5117Z" fill="#142B65"/>
<path d="M27.017 17.5117C26.951 17.4079 26.822 17.163 26.675 16.8746C31.1123 16.33 31.9854 14.256 31.9854 14.256C32.2766 14.9064 32.4681 15.2796 32.4681 15.2796C32.4681 15.2796 32.7935 15.8506 31.3595 16.6865C29.9255 17.5225 28.6748 17.8487 28.0748 17.9202C27.4748 17.9917 27.2305 17.8487 27.017 17.5122V17.5117Z" fill="#142B65"/>
<path d="M6.20737 10.9985C5.50234 7.61402 6.04467 4.39997 6.04467 4.39997C6.04467 4.39997 3.69213 5.18842 2.69542 8.83784C1.69871 12.4873 0.264716 15.2802 0.264716 15.2802C0.264716 15.2802 -0.0606813 15.8512 1.37331 16.6871C2.80731 17.5231 4.05808 17.8492 4.65806 17.9207C5.25805 17.9922 5.50234 17.8492 5.71585 17.5128C5.92741 17.1798 6.78878 15.3957 6.8049 15.3624C6.6725 13.8418 6.48586 12.3354 6.20737 10.999V10.9985Z" fill="#E8012F"/>
<path d="M26.5204 10.9985C27.2254 7.61402 26.6831 4.39997 26.6831 4.39997C26.6831 4.39997 29.0356 5.18842 30.0323 8.83784C31.029 12.4873 32.463 15.2802 32.463 15.2802C32.463 15.2802 32.7884 15.8512 31.3544 16.6871C29.9204 17.5231 28.6696 17.8492 28.0697 17.9207C27.4697 17.9922 27.2254 17.8492 27.0119 17.5128C26.8003 17.1798 25.9389 15.3957 25.9228 15.3624C26.0552 13.8418 26.2419 12.3354 26.5204 10.999V10.9985Z" fill="#E8012F"/>
<path style="mix-blend-mode:multiply" opacity="0.3" d="M6.20744 10.9986C5.50241 7.61411 6.04474 4.40005 6.04474 4.40005C6.04474 4.40005 3.69221 5.18851 2.69549 8.83793C1.69878 12.4873 0.264789 15.2802 0.264789 15.2802C0.264789 15.2802 -0.0606088 15.8513 1.37339 16.6872C2.80738 17.5232 4.05816 17.8493 4.65814 17.9208C5.25812 17.9923 5.50241 17.8493 5.71592 17.5129C5.92748 17.1799 6.78885 15.3958 6.80498 15.3625C6.67257 13.8419 6.48593 12.3355 6.20744 10.9991V10.9986Z" fill="url(#paint1_linear_50_129)"/>
<g style="mix-blend-mode:multiply">
<path d="M30.4838 16.2638C32.1127 15.333 32.1127 14.6349 32.1127 14.6349L32.463 15.2799C32.463 15.2799 32.7884 15.8509 31.3544 16.6868C29.9204 17.5228 28.6696 17.8489 28.0697 17.9204C27.4697 17.9919 27.2254 17.8489 27.0119 17.5125C26.8003 17.1795 26.7606 16.9621 26.7606 16.9621C26.7606 16.9621 28.8549 17.1946 30.4838 16.2638Z" fill="#2C2836"/>
</g>
<g style="mix-blend-mode:multiply">
<path d="M2.24388 16.2638C0.614995 15.333 0.614995 14.6349 0.614995 14.6349L0.264671 15.2799C0.264671 15.2799 -0.0607262 15.8509 1.37327 16.6868C2.80726 17.5228 4.05804 17.8489 4.65802 17.9204C5.258 17.9919 5.50229 17.8489 5.7158 17.5125C5.92736 17.1795 5.96704 16.9621 5.96704 16.9621C5.96704 16.9621 3.87276 17.1946 2.24388 16.2638Z" fill="#2C2836"/>
</g>
<path d="M16.3644 3.17885L16.3634 3.21852V3.17885L12.6223 2.59804C12.6223 2.59804 13.1402 4.56183 15.2738 5.09367C15.5978 5.17496 15.9593 5.22247 16.3619 5.2254H16.3658C16.8275 5.22198 17.2355 5.15978 17.5946 5.05547C19.6105 4.47466 20.1054 2.59804 20.1054 2.59804L16.3644 3.17885Z" fill="#757575"/>
<path d="M12.4596 1.20194C12.4591 1.18969 12.4581 1.17843 12.4576 1.16668C12.4567 1.13729 12.4195 1.12701 12.4044 1.15199C12.3057 1.318 12.0404 1.67256 11.4204 2.0472L11.501 2.45955C11.9871 4.40473 13.917 4.96203 15.1942 5.11532C15.4287 5.14323 15.6408 5.15743 15.8181 5.16429C12.2065 4.38269 12.4596 1.20194 12.4596 1.20194Z" fill="#142B65"/>
<path d="M20.2683 1.20194C20.2688 1.18969 20.2697 1.17843 20.2702 1.16668C20.2712 1.13729 20.3083 1.12701 20.3235 1.15199C20.4222 1.318 20.6875 1.67256 21.3075 2.0472L21.2269 2.45955C20.7407 4.40473 18.8108 4.96203 17.5337 5.11532C17.2992 5.14323 17.0871 5.15743 16.9098 5.16429C20.5214 4.38269 20.2683 1.20194 20.2683 1.20194Z" fill="#142B65"/>
<path d="M13.0772 1.28667L13.0713 1.27932C12.8344 1.25777 12.4762 1.15493 12.4484 1.14661C12.4538 1.1515 12.4572 1.15836 12.4577 1.16718C12.4577 1.17893 12.4591 1.19068 12.4596 1.20244C12.4596 1.20244 12.2232 4.17702 15.4742 5.08007C15.013 4.9023 12.8857 3.93656 13.0777 1.28667H13.0772Z" fill="#2A273E"/>
<path d="M19.6511 1.28667L19.657 1.27932C19.8939 1.25778 20.2521 1.15493 20.2799 1.14661C20.2745 1.15151 20.2711 1.15836 20.2706 1.16718C20.2706 1.17893 20.2692 1.19068 20.2687 1.20244C20.2687 1.20244 20.5052 4.17702 17.2541 5.08007C17.7153 4.9023 19.8426 3.93656 19.6506 1.28667H19.6511Z" fill="#2A273E"/>
<g style="mix-blend-mode:multiply">
<path d="M16.9092 5.16528C20.2614 4.44 20.2848 1.64857 20.2706 1.25043C20.2706 1.24406 20.2702 1.23721 20.2697 1.23084C20.2687 1.21272 20.2682 1.20293 20.2682 1.20293C20.2687 1.19068 20.2697 1.17942 20.2702 1.16767C20.2702 1.15836 20.2745 1.1515 20.2799 1.14661C20.2496 1.15738 19.893 1.27785 18.885 1.36796C18.885 1.36796 18.8845 1.36796 18.884 1.36796C18.8606 1.36992 18.8371 1.37188 18.8127 1.37433C18.8088 1.37433 18.8049 1.37482 18.8015 1.37531C18.7814 1.37678 18.7609 1.37874 18.7404 1.38021C18.7321 1.3807 18.7238 1.38167 18.7155 1.38216C18.6989 1.38363 18.6813 1.38461 18.6642 1.38608C18.652 1.38706 18.6402 1.38804 18.628 1.38902C18.6148 1.39 18.6012 1.39098 18.5875 1.39196C18.5709 1.39343 18.5538 1.39441 18.5371 1.39588C18.5279 1.39637 18.5191 1.39735 18.5098 1.39784C18.4883 1.3993 18.4663 1.40077 18.4443 1.40224C18.4394 1.40224 18.4341 1.40273 18.4292 1.40322C18.4028 1.40518 18.3764 1.40665 18.3495 1.40812C18.3486 1.40812 18.3476 1.40812 18.3466 1.40812C17.8228 1.44093 17.1706 1.46395 16.3649 1.4664H16.3629C15.5573 1.46395 14.905 1.44044 14.3812 1.40812C14.3803 1.40812 14.3793 1.40812 14.3783 1.40812C14.3514 1.40665 14.3251 1.40469 14.2987 1.40322C14.2938 1.40322 14.2884 1.40273 14.2835 1.40224C14.2615 1.40077 14.2396 1.3993 14.2181 1.39784C14.2088 1.39735 14.1995 1.39637 14.1907 1.39588C14.1736 1.3949 14.157 1.39343 14.1404 1.39196C14.1267 1.39098 14.1135 1.39 14.0998 1.38902C14.0876 1.38804 14.0754 1.38706 14.0637 1.38608C14.0466 1.38461 14.0295 1.38363 14.0124 1.38216C14.0041 1.38167 13.9958 1.3807 13.9874 1.38021C13.9669 1.37874 13.9464 1.37678 13.9264 1.37531C13.9225 1.37531 13.9186 1.37482 13.9151 1.37433C13.8912 1.37237 13.8673 1.37041 13.8438 1.36796C13.8438 1.36796 13.8433 1.36796 13.8428 1.36796C12.8349 1.27785 12.4787 1.15738 12.4479 1.14661C12.4533 1.1515 12.4577 1.15836 12.4577 1.16767C12.4577 1.17942 12.4592 1.19117 12.4596 1.20293C12.4596 1.20293 12.4587 1.21321 12.4582 1.23133C12.4582 1.2377 12.4577 1.24455 12.4572 1.25092C12.443 1.64906 12.4665 4.44 15.8187 5.16577C15.7283 5.16234 15.6286 5.15695 15.5216 5.14863C15.7796 5.19662 16.059 5.22405 16.362 5.22649H16.3659C16.6664 5.22405 16.9439 5.19662 17.2004 5.14912C17.0958 5.15695 16.9981 5.16234 16.9092 5.16577V5.16528Z" fill="#F62741"/>
<path d="M16.9092 5.16528C20.2614 4.44 20.2848 1.64857 20.2706 1.25043C20.2706 1.24406 20.2702 1.23721 20.2697 1.23084C20.2687 1.21272 20.2682 1.20293 20.2682 1.20293C20.2687 1.19068 20.2697 1.17942 20.2702 1.16767C20.2702 1.15836 20.2745 1.1515 20.2799 1.14661C20.2496 1.15738 19.893 1.27785 18.885 1.36796C18.885 1.36796 18.8845 1.36796 18.884 1.36796C18.8606 1.36992 18.8371 1.37188 18.8127 1.37433C18.8088 1.37433 18.8049 1.37482 18.8015 1.37531C18.7814 1.37678 18.7609 1.37874 18.7404 1.38021C18.7321 1.3807 18.7238 1.38167 18.7155 1.38216C18.6989 1.38363 18.6813 1.38461 18.6642 1.38608C18.652 1.38706 18.6402 1.38804 18.628 1.38902C18.6148 1.39 18.6012 1.39098 18.5875 1.39196C18.5709 1.39343 18.5538 1.39441 18.5371 1.39588C18.5279 1.39637 18.5191 1.39735 18.5098 1.39784C18.4883 1.3993 18.4663 1.40077 18.4443 1.40224C18.4394 1.40224 18.4341 1.40273 18.4292 1.40322C18.4028 1.40518 18.3764 1.40665 18.3495 1.40812C18.3486 1.40812 18.3476 1.40812 18.3466 1.40812C17.8228 1.44093 17.1706 1.46395 16.3649 1.4664H16.3629C15.5573 1.46395 14.905 1.44044 14.3812 1.40812C14.3803 1.40812 14.3793 1.40812 14.3783 1.40812C14.3514 1.40665 14.3251 1.40469 14.2987 1.40322C14.2938 1.40322 14.2884 1.40273 14.2835 1.40224C14.2615 1.40077 14.2396 1.3993 14.2181 1.39784C14.2088 1.39735 14.1995 1.39637 14.1907 1.39588C14.1736 1.3949 14.157 1.39343 14.1404 1.39196C14.1267 1.39098 14.1135 1.39 14.0998 1.38902C14.0876 1.38804 14.0754 1.38706 14.0637 1.38608C14.0466 1.38461 14.0295 1.38363 14.0124 1.38216C14.0041 1.38167 13.9958 1.3807 13.9874 1.38021C13.9669 1.37874 13.9464 1.37678 13.9264 1.37531C13.9225 1.37531 13.9186 1.37482 13.9151 1.37433C13.8912 1.37237 13.8673 1.37041 13.8438 1.36796C13.8438 1.36796 13.8433 1.36796 13.8428 1.36796C12.8349 1.27785 12.4787 1.15738 12.4479 1.14661C12.4533 1.1515 12.4577 1.15836 12.4577 1.16767C12.4577 1.17942 12.4592 1.19117 12.4596 1.20293C12.4596 1.20293 12.4587 1.21321 12.4582 1.23133C12.4582 1.2377 12.4577 1.24455 12.4572 1.25092C12.443 1.64906 12.4665 4.44 15.8187 5.16577C15.7283 5.16234 15.6286 5.15695 15.5216 5.14863C15.7796 5.19662 16.059 5.22405 16.362 5.22649H16.3659C16.6664 5.22405 16.9439 5.19662 17.2004 5.14912C17.0958 5.15695 16.9981 5.16234 16.9092 5.16577V5.16528Z" fill="url(#paint2_linear_50_129)" style="mix-blend-mode:multiply"/>
</g>
<path d="M10.6818 30.1818C10.9727 26.4 10.6818 11.6363 8.86364 6.18176C10.9 4.72721 12.3788 4.24244 12.5 4.36366C13.9545 6.90911 15.0455 30.5455 14.3182 30.1818C13.7364 29.8909 11.6515 30.0606 10.6818 30.1818Z" fill="#E9E8ED"/>
<path d="M21.8224 30.1819C21.5315 26.4001 21.8224 11.6364 23.6406 6.18182C21.6042 4.72727 20.1254 4.2425 20.0042 4.36372C18.5497 6.90917 17.4588 30.5455 18.186 30.1819C18.7679 29.891 20.8527 30.0607 21.8224 30.1819Z" fill="#E9E8ED"/>
<path d="M19.1013 26.9091V18.5304H20.7692V21.5249H21.5593V18.5304H23.2272V26.9091H21.5593V23.105H20.7692V26.9091H19.1013Z" fill="#023348"/>
<path d="M15.9558 26.9091V20.1398H14.9608V18.5304H18.6284V20.1398H17.6334V26.9091H15.9558Z" fill="#023348"/>
<path d="M10.2755 26.9091L11.0851 18.5304H13.9235L14.7233 26.9091H13.1334L13.0164 25.5533H12.0019L11.9044 26.9091H10.2755ZM12.1288 24.217H12.8896L12.5189 19.9545H12.4409L12.1288 24.217Z" fill="#023348"/>
<path fill-rule="evenodd" clip-rule="evenodd" d="M19.0285 18.4577H20.8419V21.4521H21.4866V18.4577H23.2999V26.9818H21.4866V23.1778H20.8419V26.9818H19.0285V18.4577ZM19.174 18.6031V26.8364H20.6965V23.0323H21.632V26.8364H23.1545V18.6031H21.632V21.5976H20.6965V18.6031H19.174Z" fill="white"/>
<path fill-rule="evenodd" clip-rule="evenodd" d="M14.8881 18.4577H18.7011V20.2125H17.7062V26.9818H15.883V20.2125H14.8881V18.4577ZM15.0336 18.6031V20.0671H16.0285V26.8364H17.5607V20.0671H18.5556V18.6031H15.0336Z" fill="white"/>
<path fill-rule="evenodd" clip-rule="evenodd" d="M11.019 18.4577H13.9896L14.8033 26.9818H13.0667L12.9496 25.626H12.0696L11.9721 26.9818H10.1954L11.019 18.4577ZM11.1511 18.6031L10.3556 26.8364H11.8367L11.9343 25.4806H13.0831L13.2001 26.8364H14.6433L13.8574 18.6031H11.1511ZM12.3733 19.8818H12.5856L12.9689 24.2897H12.0505L12.3733 19.8818ZM12.4828 20.3783L12.207 24.1443H12.8102L12.4828 20.3783Z" fill="white"/>
<rect x="13.1983" y="8.13255" width="5.73484" height="4.5124" fill="#B4B9B6"/>
<rect x="13.1983" y="11.1411" width="5.73484" height="1.50413" fill="black"/>
<rect x="14.2604" y="9.20684" width="0.637204" height="1.71901" fill="#9E7E74"/>
<rect x="13.6231" y="9.63637" width="0.637204" height="1.71901" fill="black"/>
<path d="M14.7913 10.4964L13.6231 11.3559H16.4905L15.4285 10.4964H14.7913Z" fill="#CC8E7B" stroke="#92675D" stroke-width="0.109763"/>
<rect x="15.9597" y="9.8516" width="0.212401" height="1.07438" fill="#4C696D"/>
<path d="M14.2604 12.6444L18.7209 8.34684L17.8713 15.2229L14.579 15.008L14.2604 12.6444Z" fill="white"/>
<path d="M18.2961 8.77682L19.1457 7.91731V12H18.2961V8.77682Z" fill="#EE3123"/>
<path d="M17.0216 9.95891L17.8712 9.20684V15.2234H17.0216V9.95891Z" fill="#EE3123"/>
<path d="M14.4727 12.4299L15.3223 11.6778V15.2233H14.4727V12.4299Z" fill="#EE3123"/>
<path d="M15.7472 11.2478L16.5968 10.3883V15.4379H15.7472V11.2478Z" fill="#EE3123"/>
<path d="M18.7209 8.34684L14.2604 12.6444" stroke="black" stroke-width="0.2"/>
<path fill-rule="evenodd" clip-rule="evenodd" d="M12.1528 7.27327H20.1179C20.2595 9.45784 19.6506 14.4072 16.0823 16.7278C14.6662 15.9041 11.898 12.86 12.1528 7.27327ZM13.6336 8.3478H18.709C18.7992 9.93658 18.4112 13.5361 16.1374 15.2238C15.2352 14.6248 13.4712 12.4109 13.6336 8.3478Z" fill="white"/>
<path d="M20.1179 7.27327L20.2177 7.2668L20.2116 7.17327H20.1179V7.27327ZM12.1528 7.27327V7.17327H12.0573L12.0529 7.26871L12.1528 7.27327ZM16.0823 16.7278L16.032 16.8143L16.0852 16.8452L16.1368 16.8116L16.0823 16.7278ZM18.709 8.3478L18.8088 8.34213L18.8034 8.2478H18.709V8.3478ZM13.6336 8.3478V8.2478H13.5375L13.5337 8.3438L13.6336 8.3478ZM16.1374 15.2238L16.0821 15.3071L16.1407 15.346L16.1971 15.3041L16.1374 15.2238ZM20.1179 7.17327H12.1528V7.37327H20.1179V7.17327ZM16.1368 16.8116C17.9466 15.6346 19.0016 13.7939 19.5865 11.9802C20.1713 10.1666 20.2892 8.3704 20.2177 7.2668L20.0181 7.27974C20.0882 8.36071 19.9725 10.1315 19.3961 11.9188C18.8198 13.7061 17.7862 15.5004 16.0277 16.644L16.1368 16.8116ZM12.0529 7.26871C11.7964 12.8916 14.5828 15.9713 16.032 16.8143L16.1325 16.6414C14.7497 15.837 11.9995 12.8285 12.2527 7.27783L12.0529 7.26871ZM18.709 8.2478H13.6336V8.4478H18.709V8.2478ZM16.1971 15.3041C17.3587 14.4418 18.0329 13.0962 18.4059 11.7759C18.7792 10.4547 18.8545 9.14637 18.8088 8.34213L18.6091 8.35347C18.6537 9.138 18.5801 10.4239 18.2135 11.7215C17.8466 13.0201 17.1899 14.3181 16.0778 15.1435L16.1971 15.3041ZM13.5337 8.3438C13.3701 12.4366 15.1466 14.686 16.0821 15.3071L16.1928 15.1405C15.3237 14.5635 13.5723 12.3853 13.7335 8.35179L13.5337 8.3438Z" fill="black"/>
<ellipse cx="16.0658" cy="9.20671" rx="0.743405" ry="0.644628" fill="#328964"/>
</g>
<defs>
<linearGradient id="paint0_linear_50_129" x1="16.3663" y1="3.94084" x2="16.3663" y2="30.4579" gradientUnits="userSpaceOnUse">
<stop stop-color="#F3203D"/>
<stop offset="0.265" stop-color="#FB3749"/>
<stop offset="1" stop-color="#F83144"/>
</linearGradient>
<linearGradient id="paint1_linear_50_129" x1="2.58898" y1="10.4555" x2="6.70605" y2="11.534" gradientUnits="userSpaceOnUse">
<stop/>
<stop offset="0.15" stop-color="#585858"/>
<stop offset="0.31" stop-color="#B1B1B1"/>
<stop offset="0.43" stop-color="#E9E9E9"/>
<stop offset="0.48" stop-color="white"/>
<stop offset="0.54" stop-color="#FAFAFA"/>
<stop offset="0.6" stop-color="#ECECEC"/>
<stop offset="0.67" stop-color="#D5D5D5"/>
<stop offset="0.74" stop-color="#B5B5B5"/>
<stop offset="0.81" stop-color="#8C8C8C"/>
<stop offset="0.89" stop-color="#5A5A5A"/>
<stop offset="0.96" stop-color="#202020"/>
<stop offset="1"/>
</linearGradient>
<linearGradient id="paint2_linear_50_129" x1="12.4479" y1="3.18631" x2="20.2799" y2="3.18631" gradientUnits="userSpaceOnUse">
<stop/>
<stop offset="0.15" stop-color="#585858"/>
<stop offset="0.31" stop-color="#B1B1B1"/>
<stop offset="0.43" stop-color="#E9E9E9"/>
<stop offset="0.48" stop-color="white"/>
<stop offset="0.54" stop-color="#FAFAFA"/>
<stop offset="0.6" stop-color="#ECECEC"/>
<stop offset="0.67" stop-color="#D5D5D5"/>
<stop offset="0.74" stop-color="#B5B5B5"/>
<stop offset="0.81" stop-color="#8C8C8C"/>
<stop offset="0.89" stop-color="#5A5A5A"/>
<stop offset="0.96" stop-color="#202020"/>
<stop offset="1"/>
</linearGradient>
<clipPath id="clip0_50_129">
<rect width="32" height="32" fill="white" transform="translate(0.5)"/>
</clipPath>
</defs>
</svg>
